<svg xmlns="http://www.w3.org/2000/svg" xml:space="preserve" style="fill-rule:evenodd;clip-rule:evenodd;stroke-linejoin:round;stroke-miterlimit:2" viewBox="0 0 30 30"><circle cx="15" cy="15" r="15" style="fill:#445964"/><path d="M6.944 25c1.073 0 1.944-.88 1.944-1.966a1.956 1.956 0 0 0-1.944-1.967A1.956 1.956 0 0 0 5 23.034C5 24.12 5.87 25 6.944 25ZM6.944 14.479a1.956 1.956 0 0 0 1.944-1.967 1.956 1.956 0 0 0-1.944-1.966A1.955 1.955 0 0 0 5 12.512c0 1.086.87 1.967 1.944 1.967Z" style="fill:#fff;fill-rule:nonzero"/><path d="M24.962 6.614a1.301 1.301 0 0 0-.936-1.575 1.282 1.282 0 0 0-1.556.946l-4.271 17.326a1.301 1.301 0 0 0 .935 1.575 1.283 1.283 0 0 0 1.557-.946l4.271-17.326Zm-7.032 0a1.301 1.301 0 0 0-.936-1.575 1.282 1.282 0 0 0-1.556.946l-4.271 17.326a1.301 1.301 0 0 0 .936 1.575 1.282 1.282 0 0 0 1.556-.946L17.93 6.614Z" style="fill:#fff"/></svg>